<?xml version="1.0" encoding="utf-8"?>
<!-- Generator: Adobe Illustrator 16.0.0, SVG Export Plug-In . SVG Version: 6.00 Build 0)  -->
<!DOCTYPE svg PUBLIC "-//W3C//DTD SVG 1.1//EN" "http://www.w3.org/Graphics/SVG/1.1/DTD/svg11.dtd">
<svg version="1.1" id="Layer_1" xmlns="http://www.w3.org/2000/svg" xmlns:xlink="http://www.w3.org/1999/xlink" x="0px" y="0px"
	 width="130.036px" height="130.035px" viewBox="0 0 130.036 130.035" enable-background="new 0 0 130.036 130.035"
	 xml:space="preserve">
<g>
	<g enable-background="new    ">
		<path fill="#222222" d="M58.785,35.713c-2.128,2.406-3.423,5.182-4.812,7.957c-0.833,1.573-1.851,3.239-2.868,4.812
			c-1.203,1.85-2.591,1.665-3.424-0.371c-1.851-4.163-4.071-8.143-6.292-12.121c-0.462-0.74-1.11-1.48-1.48-2.221
			c-0.833,0.37-0.555,0.833-0.555,1.203c0.555,7.31,1.203,14.619,1.018,22.021c-0.185,6.57-0.463,13.232-0.463,19.802
			c0,2.684,0.278,5.274,0.37,7.958c0.093,4.719,0.093,9.438,0.186,14.064c0,0.555-0.093,1.109-0.186,1.665
			c-0.185,0.74-1.11,1.203-1.758,0.925c-0.74-0.185-1.203-0.647-1.203-1.388c0.093-2.961,0.37-5.736,0.37-8.697
			c0-3.146-0.277-6.478-0.277-9.716c0-8.42-0.277-16.748,0.277-25.168c0.186-1.851,0.186-3.701,0-5.645
			c-0.277-5.273-0.462-10.455-0.925-15.729c-0.186-1.943-0.74-3.979-1.11-5.922c-0.278-1.11,0.092-1.759,1.11-1.943h0.833
			c1.203-0.185,2.128,0.277,2.683,1.388c2.869,5.367,5.737,10.641,8.698,16.008c0.092,0.186,0.37,0.37,0.74,0.647
			c0.555-0.74,1.203-1.573,1.665-2.405l5.552-11.381c0.278-0.648,0.556-1.389,0.74-2.221c0.186-0.833,0.648-1.296,1.296-1.666
			c0.925-0.37,0.925-0.37,2.868,0.093c-0.647,3.794-0.463,7.587-0.555,11.288c-0.092,6.385,0,12.77-0.092,19.154
			c-0.186,5.182,0.277,10.455-0.37,15.637c-0.186,1.389-0.093,2.776,0.092,4.071c0.37,4.349,0.278,8.698,0,13.047
			c-0.185,2.961-0.092,6.015-0.185,8.976c0,0.555,0.093,1.203,0,1.758c-0.093,0.647-0.833,1.388-1.573,1.48
			c-0.647,0-1.388-0.647-1.48-1.48c0-0.555,0.093-1.11,0.093-1.666c0.463-7.217,0.833-14.526,0.37-21.744v-2.405
			c0.093-3.794,0.093-7.495,0.185-11.382c0.185-4.163,0.278-8.512,0.37-12.676c0.092-2.591-0.092-5.182-0.092-7.68v-4.72
			C58.6,38.026,58.692,36.823,58.785,35.713z"/>
		<path fill="#222222" d="M88.946,58.29c-2.035-0.556-3.979-0.74-6.106-0.463c-0.556,0.093-1.019,0.278-1.573,0.278
			c-0.833,0-1.573-1.019-1.666-1.759c0-0.74,0.556-1.295,1.48-1.573c0.463-0.092,0.926-0.092,1.296-0.092
			c3.054,0.092,6.106,0.277,9.067,0.463c0.74,0.555,0.926,1.388,0.833,2.312c-0.37,6.385,0.093,12.677-0.185,18.969
			c-0.186,3.608-0.186,7.402-0.093,11.104c0,3.424,0.093,4.719-0.37,8.143c-0.186,1.203-0.093,2.035-0.647,3.054
			c-1.296,2.868-1.851,4.256-5.274,4.719c-2.221-0.277-3.608,0.093-5.829-0.463c-3.887-0.925-6.2-3.701-7.218-7.495
			c-0.832-2.498-1.018-5.273-1.203-7.864c-0.185-5.089-0.185-10.271-0.277-15.36c0-2.221,0.093-4.719,0.093-6.939
			c0-2.591,0.093-5.182-0.37-7.772c-0.277-1.11-0.186-2.221-0.186-3.424v-9.438c0-1.11,0.186-2.128,0.371-3.239l0.74-5.459
			c0.277-1.203,0.647-2.591,1.295-3.701c1.573-2.961,3.794-4.349,7.31-4.533c0.463,0,0.833-0.093,1.296-0.186
			c4.812-0.093,8.975,2.221,10.178,6.848c0.37,1.109,0.277,2.683,0.277,3.979c0,0.925-0.647,1.572-1.388,1.572
			c-0.74,0.093-1.851-0.647-1.942-1.388c-0.093-0.74-0.093-1.573,0-2.405c0-1.851-1.019-3.238-2.406-4.071
			c-2.684-1.666-5.736-1.48-8.42-0.463c-1.943,0.925-2.961,2.868-3.146,4.812c-0.463,3.054-0.832,6.107-1.11,9.068
			c-0.093,2.961-0.093,5.922-0.185,8.79c-0.093,0.37-0.093,0.74,0,1.11c0.555,3.424,0.277,7.125,0.37,10.733
			c0,3.794,0.277,7.587,0.462,11.381v5.459c0.093,2.684,0.093,5.367,0.278,8.05c0.185,3.146,1.388,5.922,3.979,7.773
			c0.556,0.462,1.203,0.74,1.665,0.832c2.129,0.463,2.869,0.74,5.645,0.74c0.833,0.277,1.943-2.035,2.221-2.684
			c0.37-0.832,0.463-1.572,0.463-2.498c0.463-3.053,0.186-4.071,0.277-7.217c0.648-11.381,0.463-18.414,0.186-28.314
			C89.223,59.215,89.039,58.846,88.946,58.29z"/>
	</g>
</g>
<circle fill="none" stroke="#222222" stroke-width="2" stroke-miterlimit="10" cx="65.018" cy="65.017" r="64"/>
</svg>
