<svg xmlns="http://www.w3.org/2000/svg" width="130.036" height="130.035" viewBox="0 0 130.036 130.035"><path d="M58.785 35.713c-2.128 2.406-3.423 5.182-4.812 7.957-.833 1.573-1.85 3.24-2.868 4.812-1.203 1.85-2.59 1.665-3.424-.37-1.85-4.164-4.07-8.144-6.29-12.122-.46-.74-1.11-1.48-1.48-2.22-.83.37-.552.832-.552 1.202.555 7.31 1.203 14.62 1.018 22.02-.185 6.57-.463 13.233-.463 19.803 0 2.684.278 5.274.37 7.958.093 4.72.093 9.438.186 14.064 0 .555-.094 1.11-.187 1.665-.187.74-1.11 1.203-1.76.925-.74-.185-1.203-.647-1.203-1.388.092-2.966.37-5.74.37-8.7 0-3.148-.278-6.48-.278-9.718 0-8.42-.276-16.748.278-25.168.186-1.85.186-3.7 0-5.645-.277-5.273-.462-10.455-.925-15.73-.186-1.94-.74-3.978-1.11-5.92-.278-1.11.092-1.76 1.11-1.944h.833c1.203-.186 2.128.276 2.683 1.387a1332.73 1332.73 0 0 0 8.697 16.008c.092.187.37.37.74.648.555-.74 1.203-1.575 1.665-2.407l5.554-11.38a12.4 12.4 0 0 0 .74-2.22c.186-.833.648-1.296 1.296-1.666.923-.37.923-.37 2.866.092-.647 3.793-.463 7.586-.555 11.287-.09 6.385 0 12.77-.09 19.154-.185 5.182.278 10.455-.37 15.637-.185 1.39-.092 2.777.093 4.072.37 4.35.278 8.697 0 13.046-.185 2.96-.092 6.014-.185 8.975 0 .556.094 1.204 0 1.76-.092.646-.832 1.387-1.572 1.48-.647 0-1.388-.648-1.48-1.48 0-.556.093-1.11.093-1.667.464-7.216.834-14.525.37-21.743V75.77c.094-3.793.094-7.494.186-11.38.185-4.164.278-8.513.37-12.677.092-2.59-.092-5.182-.092-7.68v-4.72c0-1.294.094-2.497.187-3.607zm30.16 22.577c-2.034-.556-3.98-.74-6.105-.463-.556.093-1.02.278-1.573.278-.833 0-1.573-1.02-1.666-1.76 0-.74.56-1.294 1.48-1.572.468-.092.93-.092 1.3-.092 3.055.097 6.107.28 9.068.468.74.555.926 1.388.833 2.312-.37 6.384.093 12.676-.185 18.97-.186 3.606-.186 7.4-.093 11.102 0 3.424.094 4.72-.37 8.143-.185 1.203-.092 2.035-.646 3.054-1.296 2.866-1.85 4.254-5.274 4.72-2.22-.28-3.61.09-5.83-.466-3.887-.925-6.2-3.7-7.218-7.495-.83-2.5-1.016-5.274-1.2-7.865-.186-5.09-.186-10.27-.278-15.36 0-2.22.094-4.72.094-6.94 0-2.59.093-5.18-.37-7.77-.277-1.11-.186-2.222-.186-3.425v-9.44c0-1.11.186-2.127.37-3.24l.74-5.457c.278-1.203.648-2.59 1.296-3.7 1.573-2.962 3.794-4.35 7.31-4.534.463 0 .833-.095 1.296-.188 4.812-.093 8.975 2.22 10.178 6.848.37 1.11.277 2.684.277 3.98 0 .925-.65 1.57-1.39 1.57-.74.095-1.85-.645-1.942-1.386a10.392 10.392 0 0 1 0-2.405c0-1.85-1.02-3.24-2.406-4.07-2.683-1.67-5.735-1.48-8.42-.466-1.942.925-2.96 2.868-3.145 4.812a161.454 161.454 0 0 0-1.11 9.068c-.093 2.96-.093 5.922-.185 8.79a2.22 2.22 0 0 0 0 1.11c.555 3.424.277 7.125.37 10.733 0 3.794.277 7.587.46 11.38v5.46c.095 2.684.095 5.367.28 8.05.185 3.146 1.388 5.922 3.98 7.773.555.463 1.2.74 1.664.833 2.13.463 2.87.74 5.645.74.83.277 1.94-2.035 2.22-2.684.37-.834.463-1.574.463-2.5.464-3.053.187-4.07.278-7.217.65-11.38.465-18.414.188-28.314.09-.468-.095-.837-.188-1.39z" fill="#222"/><circle fill="none" stroke="#222" stroke-width="2" stroke-miterlimit="10" cx="65.018" cy="65.017" r="64"/></svg>