<?xml version="1.0" encoding="utf-8"?>
<!-- Generator: Adobe Illustrator 16.0.0, SVG Export Plug-In . SVG Version: 6.00 Build 0)  -->
<!DOCTYPE svg PUBLIC "-//W3C//DTD SVG 1.1//EN" "http://www.w3.org/Graphics/SVG/1.1/DTD/svg11.dtd">
<svg version="1.1" id="Layer_1" xmlns="http://www.w3.org/2000/svg" xmlns:xlink="http://www.w3.org/1999/xlink" x="0px" y="0px"
	 width="128.84px" height="129.164px" viewBox="0 0 128.84 129.164" enable-background="new 0 0 128.84 129.164"
	 xml:space="preserve">
<g>
	<text transform="matrix(1 0 0 1 29.4526 101.8418)" fill="#D97A4D" font-family="'FrenteH1-Regular'" font-size="92.5234">mg</text>
</g>
<g>
	<g>
		<g>
			<g>
				<g>
					<path fill="#DE8B64" d="M124.82,44.266c0.107,0.187,0.167,0.04-0.053-0.499l-0.297-0.333L124.82,44.266z"/>
					<path fill="#DE8B64" d="M123.739,40.494c-0.341-0.602-0.777-1.272-0.745-0.805c0.409,0.561,0.411,0.736,0.871,1.338
						c0.226,0.538,0.301,0.974,0.212,0.902c0.11,0.178,0.274,0.861,0.479,1.12c-0.152-0.749-0.432-1.676-0.936-2.553
						C123.57,40.284,123.691,40.46,123.739,40.494z"/>
					<path fill="#DE8B64" d="M83.108,3.073l0.347,0.125C83.362,3.159,83.242,3.117,83.108,3.073z"/>
					<path fill="#DE8B64" d="M48.087,2.338c0.261-0.07,0.366-0.114,0.376-0.132C48.222,2.278,48.025,2.338,48.087,2.338z"/>
					<path fill="#DE8B64" d="M42.246,3.989c0.124-0.041,0.228-0.075,0.34-0.112C42.453,3.909,42.32,3.949,42.246,3.989z"/>
					<path fill="#DE8B64" d="M83.108,3.073l-0.893-0.325C82.137,2.781,82.669,2.928,83.108,3.073z"/>
					<path fill="#DE8B64" d="M120,33.602c0.101,0.168,0.192,0.304,0.282,0.426c-0.083-0.139-0.162-0.273-0.245-0.412
						C120.026,33.613,120.015,33.61,120,33.602z"/>
					<path fill="#DE8B64" d="M97.435,9.266l0.249,0.146c0.083,0.027,0.163,0.048,0.241,0.064L97.435,9.266z"/>
					<path fill="#DE8B64" d="M107.145,16.324c-0.199-0.185-0.362-0.142-0.48-0.165c0.152,0.058,0.321,0.17,0.507,0.32
						C107.192,16.462,107.187,16.415,107.145,16.324z"/>
					<path fill="#DE8B64" d="M119.145,31.007l0.193,0.277C119.288,31.211,119.204,31.091,119.145,31.007z"/>
					<path fill="#DE8B64" d="M89.789,5.33c-0.01-0.027-0.043-0.06-0.081-0.088C89.701,5.258,89.734,5.29,89.789,5.33z"/>
					<path fill="#DE8B64" d="M127.436,57.742c0.011,0.008,0.016-0.006,0.024-0.004C127.44,57.671,127.427,57.651,127.436,57.742z"/>
					<path fill="#DE8B64" d="M125.169,44.148l0.064,0.182c0.031,0.011,0.062,0.023,0.087,0.015L125.169,44.148z"/>
					<path fill="#DE8B64" d="M32.079,8.52c0.02-0.01,0.026-0.013,0.045-0.021C32.374,8.344,32.229,8.426,32.079,8.52z"/>
					<path fill="#DE8B64" d="M8.973,97.566c-0.497-1.049,1.123,1.521,0.332-0.034C9.343,97.7,8.288,96.295,8.973,97.566z"/>
					<path fill="#DE8B64" d="M119.869,33.323c-0.077-0.14-0.156-0.283-0.234-0.427C119.736,33.093,119.808,33.224,119.869,33.323z"
						/>
					<path fill="#DE8B64" d="M9.305,97.532L9.305,97.532l-0.082-0.16C9.257,97.438,9.276,97.476,9.305,97.532z"/>
					<path fill="#DE8B64" d="M12.999,25.476c0.051-0.027,0.126-0.099,0.203-0.174C13.185,25.3,13.136,25.337,12.999,25.476z"/>
					<path fill="#DE8B64" d="M26.74,12.308l-0.387,0.27C26.507,12.47,26.631,12.384,26.74,12.308z"/>
					<path fill="#DE8B64" d="M7.813,33.919c-0.129,0.222-0.187,0.29-0.334,0.609c0.021-0.027,0.04-0.053,0.065-0.086
						C7.586,34.321,7.657,34.167,7.813,33.919z"/>
					<path fill="#DE8B64" d="M3.66,43.338c0.027-0.05,0.061-0.113,0.091-0.17c0.032-0.097,0.069-0.21,0.103-0.31L3.66,43.338z"/>
					<path fill="#DE8B64" d="M123.359,87.979c0.121-0.191,0.214-0.304,0.296-0.388C123.501,87.7,124.036,86.309,123.359,87.979z"/>
					<path fill="#DE8B64" d="M120.067,33.559c-0.06-0.035-0.116-0.103-0.198-0.236c0.059,0.101,0.114,0.199,0.169,0.293
						C120.07,33.632,120.09,33.628,120.067,33.559z"/>
					<path fill="#DE8B64" d="M8.597,34.81l-0.77,1.415C8.042,35.829,8.322,35.315,8.597,34.81z"/>
					<path fill="#DE8B64" d="M67.238,127.89l0.369-0.034C67.463,127.859,67.333,127.869,67.238,127.89z"/>
					<path fill="#DE8B64" d="M5.887,40.588c-0.155,0.247-0.298,0.518-0.435,0.803c-0.015,0.065-0.036,0.139-0.038,0.186
						L5.887,40.588z"/>
					<path fill="#DE8B64" d="M123.657,87.59c-0.002,0.002-0.002,0.002-0.002,0.002S123.655,87.592,123.657,87.59z"/>
					<path fill="#DE8B64" d="M126.346,77.331c-0.305,1.501,0.035,0.744,0.075,1.087c-0.394,1.793-0.339,0.792-0.582,1.375
						c-0.219,1.121-0.285,2.015-0.555,2.827c-0.048,0.053-0.106,0.208-0.087,0.011c-0.177,1.214-1.104,3.417-1.428,4.805
						c-0.056,0.091-0.09,0.135-0.113,0.154c0.174-0.179,0.274-0.178,0.319-0.11c-0.261,0.642-0.381,1.233-0.592,1.429
						c0.165-0.391,0.133-0.442,0.174-0.64l-0.228,0.69c-0.408,0.537,0.321-0.938,0.201-0.985c-0.233,0.665-0.487,1.39-0.728,2.072
						c-0.266,0.674-0.539,1.301-0.789,1.781c-0.25,0.132,1.021-2.315,0.271-1.071c0,0,0.19-0.372,0.381-0.744
						c0.174-0.381,0.348-0.761,0.348-0.761c-0.731,1.075,0.403-0.931-0.307,0.041c-0.423,1.011-0.709,1.554-0.935,2.124
						c-0.249,0.56-0.456,1.141-1.004,2.09c-0.146,0.479,0.2-0.081,0.054,0.399c-0.646,1.425-1.038,1.912-1.394,2.296
						c-0.346,0.39-0.631,0.689-1.115,1.733c-0.216,0.562-0.172,0.866-1.161,2.172l0.146-0.571c-1.178,1.768-0.45,1.165-1.854,2.904
						c0.173-0.366,0.933-1.391,0.725-1.144c-0.972,1.078-0.513,0.89-1.166,1.789l-0.274,0.079c-1.381,1.79-2.876,3.8-4.622,5.61
						c0.062-0.134,0.323-0.479-0.124-0.095c-1.052,1.184-2.307,2.316-3.556,3.431c-1.298,1.058-2.589,2.099-3.852,2.953
						l-0.839,0.823c-0.218,0.162-0.451,0.232-0.225,0.047c-1.012,0.625,0.003,0.11-0.435,0.479
						c-0.554,0.392-0.786,0.436-0.457,0.158c-1.607,1.358-4.913,3.431-6.942,4.325l0.357-0.245c-1.551,0.742-1.61,1.129-3.106,1.713
						l0.266-0.157c-3.416,1.524-7.307,2.984-10.118,3.525c-0.472,0.347-3.605,0.815-3.789,1.104
						c-2.125,0.275-1.529,0.138-4.513,0.473c-0.792,0.116-1.163,0.326-2.148,0.459l-0.04-0.151l-1.326,0.292
						c0,0-0.183-0.031-0.364-0.062c-0.182-0.037-0.364-0.075-0.364-0.075l-0.926,0.083c0.37-0.008,0.79,0.032,0.737,0.079
						c-0.726,0.069-1.613,0.084-2.322,0.072c-0.71-0.03-1.242-0.108-1.26-0.144c0,0-0.859,0.03-1.718,0.061
						c-0.859,0.018-1.719-0.009-1.719-0.009c0.08-0.058,0.655-0.05,1.11-0.065c-1.838,0.062-0.325-0.18-2.009-0.122
						c0.223,0.046-0.127,0.085-0.167,0.114c-0.832-0.128-2.726-0.331-4.13-0.465l0.281-0.065c-2.512-0.389-5.312-0.779-8.071-1.54
						c0.981,0.298,0.71,0.419-0.111,0.231l-0.284-0.239c-0.553-0.035,0.835,0.273-0.278,0.12c-1.025-0.316-0.639-0.381-0.039-0.255
						l-1.259-0.321c-0.059-0.068,0.24-0.005,0.333-0.041c-0.538-0.065-2.099-0.783-2.868-0.902l-0.053-0.07
						c-1.348-0.469-2.325-0.815-3.222-1.188c-0.906-0.35-1.75-0.678-2.799-1.184c-0.101,0.107-0.912-0.307-1.592-0.499
						c-0.744-0.426-1.53-0.876-2.354-1.347c-0.817-0.48-1.646-1.026-2.541-1.539c-1.27-0.702-0.422-0.122-1.018-0.402
						c-0.021-0.167-1.751-1.288-0.806-0.777c-1.051-0.656-1.686-1.128-2.4-1.629c-0.359-0.248-0.735-0.508-1.184-0.817
						c-0.434-0.327-0.938-0.706-1.564-1.179c0.232,0.254,0.517,0.512,0.334,0.422c-0.458-0.341-0.977-0.854-0.874-0.85l0.126,0.084
						c-2.872-2.091-5.706-5.772-7.686-7.735l0.111,0.111c0,0-0.494-0.533-0.988-1.066c-0.506-0.524-0.96-1.093-0.96-1.093
						c-0.792-1.078,0.561,0.579,0.025-0.257c-0.516-0.59-0.96-1.133-1.361-1.646c-0.376-0.531-0.711-1.032-1.034-1.519
						c-0.666-0.96-1.205-1.918-1.94-2.98c-0.189-0.469-0.5-1.087-0.856-1.803c-0.355-0.715-0.833-1.486-1.238-2.32
						c-0.412-0.831-0.848-1.676-1.22-2.479c-0.343-0.816-0.645-1.582-0.85-2.224l-0.022,0.177c-0.351-0.608-0.288-0.791-0.438-1.281
						c-0.04,0.093,0.183,0.737-0.01,0.349c-1.088-2.74-2.011-5.652-2.647-8.647c-0.61-2.997-1.092-6.041-1.269-9.051
						c-0.17-2.194-0.543-1.221-0.482-4.016l0.202,0.785C0.86,62.239,1.395,57.577,2.03,53.262c-0.012,0.262,0.027,0.276-0.034,0.698
						c0.267-0.888,0.666-3.34,0.568-3.381c0.177-0.657,0.125-0.133,0.275-0.528c0.301-0.875,0.4-2.294,0.669-2.73
						c0.044-0.074-0.042,0.258-0.075,0.424c0.113-0.594,0.827-2.681,0.525-2.17c0.263-0.779,0.514-1.519,0.751-2.223
						c0.246-0.701,0.439-1.378,0.742-1.961c0.188-0.845,1.118-2.574,1.062-2.895c0.165,0.201,1.355-2.538,1.789-3.484
						c-0.101,0.338,0.483-0.764,0.377-0.36c0.529-1.056,1.069-1.995,0.859-1.879c1.306-1.752,2.132-3.844,3.117-4.659
						c1.898-2.959,3.976-5.486,6.127-7.812c0.05,0.207-2.359,2.587-2.081,2.651c0.474-0.58,0.898-1.1,1.297-1.589
						c0.417-0.474,0.808-0.917,1.198-1.36c0.77-0.899,1.621-1.718,2.732-2.711c0.586-0.502-0.255,0.371-0.419,0.576
						c1.044-1.079,2.197-1.964,3.265-2.882c1.132-0.837,2.179-1.719,3.262-2.501c0.006,0.021-0.219,0.203-0.433,0.371
						c0.43-0.303,1.028-0.664,0.921-0.714l-0.408,0.312c-0.78,0.356,1.55-1.443,1.593-1.557c-0.604,0.715,2.295-1.323,1.279-0.263
						c0.285-0.198,0.629-0.466,0.526-0.483c0.449-0.252,0.608-0.303,0.204,0.037c1.574-1.038,0.97-0.75,2.46-1.587
						c0.018,0.047-0.275,0.229-0.402,0.365c0.712-0.497,1.421-1.025,2.752-1.597c-0.065,0.064,0.103,0.026-0.285,0.213
						c1.113-0.547,2.032-1.079,3.024-1.529c0.982-0.475,1.999-0.955,3.306-1.355c-0.682,0.478,0.896-0.25,1.092-0.124
						c0,0,0.34-0.136,0.68-0.272c0.345-0.121,0.69-0.241,0.69-0.241l-0.59,0.086c1.229-0.363,2.266-0.862,3.352-1.081
						c0,0-0.226,0.077-0.452,0.154c-0.223,0.088-0.445,0.177-0.445,0.177c0,0,0.571-0.189,1.154-0.335
						c0.581-0.156,1.162-0.312,1.162-0.312L47.88,3.015c1.236-0.412-0.196-0.194,1.479-0.564c-0.333,0.108,1.247-0.333,1.934-0.329
						l-0.004,0.001c0.611-0.183,1.243-0.373,2.186-0.514c0.252,0.01-0.159,0.242,0.005,0.25c0.593-0.251,2.963-0.511,3.734-0.75
						c-0.259,0.064-0.261,0.163-0.172,0.174l0.51-0.177c0.598-0.018,0.686-0.006,0.598,0.081c1.783-0.15-0.589-0.181,1.538-0.285
						c-0.166,0.026-0.085,0.038-0.43,0.09c2.13-0.116,4.117-0.318,6.082-0.225c0.575,0.189-1.713,0.042-1.052,0.202
						c2.818-0.083,5.857-0.012,8.569,0.369l-0.502-0.096c0.411-0.202,2.001,0.418,3.383,0.53c-0.336-0.05-0.462,0.064-0.367,0.048
						c0.915,0.201,1.854,0.376,2.919,0.556c1.052,0.228,2.233,0.451,3.611,0.799l-0.355-0.037c1.036,0.392,2.784,0.842,3.887,1.305
						c0.355,0.055,0.995,0.294,0.638,0.062c3.309,1.614,6.593,2.475,9.312,4.342c-0.345-0.181-0.851-0.381-0.576-0.236
						c0,0,0.631,0.293,1.229,0.646c0.606,0.34,1.212,0.679,1.212,0.679c-0.13-0.211-0.277-0.245-0.736-0.62
						c0.338,0.12,1.044,0.475,1.64,0.826c-1.124-0.566-0.077,0.149,0.334,0.507c-0.057-0.08,0.119-0.011,0.1-0.066
						c1.104,0.971,0.33-0.062,1.918,1.146l-0.122-0.008c0.647,0.37,1.228,0.738,1.874,1.216c0.19,0.304-0.678-0.416-0.782-0.356
						c0.908,0.659,1.963,1.087,2.664,1.85c-0.396-0.271-0.931-0.706-1.347-0.948c0.806,0.773,0.903,0.855,1.537,1.379l-0.061-0.053
						c0,0,0.359,0.312,0.719,0.623c0.361,0.309,0.712,0.63,0.712,0.63c0,0-0.344-0.343-0.344-0.343
						c0.656,0.311,1.192,0.792,1.779,1.303c0.594,0.506,1.195,1.089,1.946,1.68c-1.471-1.134-0.305-0.123-0.511-0.113
						c0.316,0.369,0.809,0.915,0.629,0.799c0.735,0.53,0.99,1.114,1.973,1.922c0.002,0.074,0.647,0.704,0.419,0.639
						c0.818,0.825-0.123-0.258-0.013-0.228c1.347,1.209,2.604,3.31,4.32,5.24c0.692,0.871,1.1,1.393,1.521,1.882
						c0.421,0.489,0.819,0.971,1.386,1.841c0.301,0.638-0.449-0.394-0.45-0.394c0.52,1.004,1.006,1.698,1.564,2.603
						c-0.141-0.167-0.065,0.045,0.042,0.355c0.419,0.74,0.429,0.414,0.904,1.434c-0.141-0.144-0.336-0.319-0.58-0.652
						c0.266,0.424,0.531,0.847,0.8,1.274c0.245,0.44,0.493,0.884,0.745,1.336c0.043,0.285-0.389-0.508-0.597-0.811
						c0.538,1.032,1.395,2.678,1.63,2.97l-0.25-0.71c0.173,0.39-0.013,0.247-0.168-0.027c-0.531-0.855-0.586-1.318-0.566-1.391
						l0.351,0.653c-0.036-0.403-0.372-1.071-0.775-1.803c-0.408-0.73-0.946-1.493-1.289-2.154l0.48,0.445l-0.885-1.259
						c-0.116-0.308-0.122-0.564,0.265,0.065c-0.442-0.983-0.552-0.775-0.929-1.624c-0.038-0.096-0.006-0.062,0.051,0.014
						l-0.602-0.861c0.145,0.152,0.033-0.228,0.345,0.338c-0.871-1.683-1.819-2.437-2.069-3.124l0.1,0.123
						c-1.583-2.08-0.263-0.125-1.577-1.583l-0.5-1.279l-0.274-0.109c-0.165-0.213-0.503-0.626-0.391-0.59
						c-0.727-0.701,0.059,0.173-0.393-0.209c-0.367-0.536-0.942-1.221-1.456-1.791c-0.525-0.561-0.954-1.038-0.965-1.228
						c-0.401-0.261,0.777,0.969-0.223,0.011c-0.039-0.234-0.32-0.52-0.68-0.865c-0.373-0.334-0.836-0.714-1.217-1.171
						c0.354,0.157,1.109,0.995,0.345,0.079c-0.664-0.344-1.618-1.651-2.417-2.267c-0.078,0.052-0.498-0.294-1.06-0.787
						c-0.568-0.485-1.315-1.076-1.984-1.582c0.14-0.004-2.444-2.004-3.721-2.912h0.056c-0.364,0-1.663-0.957-2.702-1.507
						c0.096-0.068,0.305-0.006,0.872,0.287c0,0-0.233-0.148-0.473-0.286c-0.238-0.14-0.476-0.28-0.476-0.28
						c-0.255-0.082-0.567-0.23-1.195-0.576l0.309,0.022c-0.63-0.382-1.298-0.705-2.018-1.041c-0.722-0.332-1.454-0.754-2.3-1.178
						c-0.149,0.071,1.199,0.955-0.639,0.189c-0.037-0.093-0.054-0.232,0.432-0.036c-0.159-0.064-0.577-0.207-0.876-0.379
						l0.771,0.232c-0.757-0.411-0.449-0.103-1.066-0.403c0.054-0.084-0.431-0.28-0.31-0.31c0.163,0.066,0.526,0.292,0.781,0.368
						c-0.693-0.349-1.521-0.797-1.785-0.971c0.041,0.078-0.052,0.122-0.582-0.082c-1.361-0.552-0.421-0.301-1.195-0.674
						c-0.35-0.085-1.211-0.464-1.285-0.333c-0.405-0.145-0.456-0.236-0.6-0.33c-0.372-0.091-1.204-0.404-1.865-0.592
						c-0.662-0.184-1.133-0.297-0.746-0.098l0.184,0.066c-0.036-0.009-0.077-0.019-0.121-0.03c0.006,0.001,0,0,0.006,0.001
						l-0.006-0.001c-1.21-0.302-2.44-0.688-3.69-1.011c-1.237-0.371-2.498-0.642-3.715-0.856l0.013-0.048
						c-1.459-0.217-3.247-0.5-4.305-0.514c-0.433-0.043-1.014-0.193-0.822-0.232c-1.128-0.063-1.252-0.071-2.875-0.223
						c1.139-0.027-0.387-0.097,1.165-0.002c-1.461-0.115-1.793-0.226-3.371-0.151c0.54-0.125-1.104-0.162-1.803-0.126l1.029,0.093
						c-0.785,0.017-1.471,0.003-2.168-0.008l0.374-0.166c-3.029-0.124-5.393,0.62-7.695,0.608c-0.771,0.231,1.627-0.158,0.94,0.081
						c-1.366,0.182-2.831,0.151-3.26,0.223c-1.878,0.295-1.696,0.557-3.638,0.941c0.26-0.005,0.525,0.091-0.891,0.508
						c-1.339,0.316-1.709,0.176-0.875-0.084c0.321-0.086,0.48-0.107,0.472-0.084c0.427-0.131,0.991-0.299,0.443-0.227l-0.16,0.102
						c-0.34,0.055-0.972,0.201-1.468,0.308c-0.493,0.115-0.845,0.212-0.646,0.096c-0.985,0.363-0.4,0.225,0.349,0.027
						c-1.716,0.458-2.669,0.766-4.396,1.366c0.284-0.068,0.559-0.094,0.287,0.004c-2.537,0.866-1.085,0.469-2.747,1.193
						c-0.983,0.317,0.258-0.343-1.396,0.438c-1.053,0.379-0.282-0.052,0.109-0.27c-1.505,0.723-2.855,1.259-3.737,1.633l0.772-0.426
						c-0.46,0.258-0.854,0.436-1.244,0.64l0.503-0.12c-0.479,0.198-0.851,0.43-0.869,0.375c-0.431,0.324,0.448-0.021-0.426,0.579
						c-0.628,0.284-1.81,1.044-2.08,1.052c1.906-1.021-0.294-0.03,1.298-0.939c-0.301,0.188-0.682,0.391-1.144,0.626
						c-0.075,0.025,0.045-0.068,0.166-0.141c-1.849,0.951-0.725,0.648-2.556,1.765c0.182-0.222-0.516,0.119-0.789,0.343
						c0.716-0.488,0.421-0.109-0.194,0.395c-1.173,0.72-1.203,0.886-1.8,1.286l0.696-0.437c-0.181,0.226-0.755,0.602-1.491,1.214
						c-0.106-0.006,0.663-0.563,0.373-0.382c-0.741,0.777-2.034,1.293-3.085,2.355c-0.564,0.396-0.158-0.085-0.647,0.273
						c-1.208,1.147-1.433,1.105-2.663,2.357c0.452-0.257,0.495-0.337-0.326,0.584l2.048-2.017l-1.233,1.382
						c0.641-0.581,1.276-1.312,1.694-1.623c-0.603,0.643-0.538,0.578-0.175,0.365c-0.979,0.682-1.667,1.651-2.71,2.533l-0.179-0.239
						c-1.552,1.374-2.448,2.732-4.218,4.735c0,0,0.145-0.16,0.289-0.319c0.142-0.162,0.297-0.312,0.297-0.312
						c-0.15,0.343-1.026,1.294-1.535,1.996c-0.026-0.124-0.396,0.275-0.674,0.529c0.085,0.007-1.16,1.583-1.142,1.894
						c0,0-0.202,0.223-0.404,0.445c-0.207,0.22-0.392,0.456-0.392,0.456c-1.228,1.783-1.145,2.197-2.209,3.971
						c0.225-0.592-0.315,0.185,0.327-1.053c-0.354,0.597-0.687,1.125-0.633,1.169c-0.278,0.309-0.837,1.733-1.204,2.259
						c-0.098,0.279-0.051,0.411-0.42,1.093c-0.058,0.066-0.042-0.025-0.042-0.025c0.029,0.019-0.48,1.119-0.088,0.556
						c-1.208,1.785-2.45,5.418-3.243,7.102c-0.508,1.425-0.961,3.191-1.344,4.507c-0.007-0.093-0.046-0.017,0.027-0.267
						c-0.546,1.814-0.02,1.196-0.622,3.259c-0.385,1.04,0.16-1.134-0.042-0.478c-0.382,0.221-0.508,2.549-0.916,3.947l0.034-0.351
						c-0.266,1.083-0.319,2.692-0.489,4.493c0,0-0.02-0.091-0.048-0.016c0.013,1.247-0.06,3.586-0.037,5.322
						c-0.126-0.543-0.065-0.792-0.195-0.463c0.016,0.78,0.208-0.223,0.24,1.329c-0.066,0.505-0.146,1.628-0.258,1.78
						c0,0-0.022-0.367-0.016-0.734c-0.001-0.368-0.002-0.735-0.002-0.735c-0.199,0.756,0.027,1.904,0.043,2.678l-0.083-0.096
						c0.115,2.256,0.365,2.267,0.575,4.675l0.034-0.255c0.335,1.287,0.04,1.111,0.365,2.396l-0.137,0.425
						c0.078,0.43,0.248,1.177,0.474,1.999c0.223,0.822,0.417,1.737,0.634,2.487c-0.359-0.823-0.769-2.61-1.074-3.71
						c0.155,0.853,0.588,2.888,0.77,3.309c-0.088-0.338-0.221-0.759-0.259-1.104c0.331,1.018,0.78,2.341,1.191,4.01
						C2.136,81.393,3.81,85.9,4.027,87.154c1.208,2.807,2.227,5.653,3.996,8.76c-0.346-1.253,0.507,0.908,0.667,0.565
						c0.414,0.716,0.6,0.972,0.614,1.05l1.163,2.231c0.25,0.548-0.486-0.625-0.492-0.53c0.959,1.546,0.309,0.709,0.912,1.758
						c-0.049-0.266,0.487,0.434,1.04,1.314l-0.71-1.286c1.554,2.009,1.079,1.933,2.741,3.894l-0.567-0.587
						c0.822,1.028,3.104,3.749,4.187,4.498c0.132,0.194,0.282,0.478-0.129,0.068c2.138,2.318,5.181,4.698,7.032,6.28l-0.232-0.091
						c0.476,0.345,0.87,0.544,1.424,1.025c-0.049,0.002-0.236-0.079-0.019,0.084c0.267,0.162,1.336,0.81,1.938,1.302l-0.585-0.321
						c1.209,0.946,2.255,1.504,3.213,2.07c0.993,0.511,1.938,0.976,3.063,1.586c-0.107,0.174,1.971,1.41,3.054,1.94l-0.052,0.01
						c3.208,1.593,5.645,2.258,8.796,3.209c1.867,0.905,6.668,1.955,9.918,2.525c-0.494-0.115,0.107-0.157,0.688-0.093
						c0.756,0.185,2.139,0.092,1.994,0.289l-0.274-0.031c0.559,0.246,2.148,0.395,3.391,0.433l0.219-0.253
						c1.607,0.302,3.745,0.28,5.682,0.174c0.969-0.064,1.892-0.127,2.682-0.18c0.789-0.071,1.449-0.104,1.899-0.062
						c0.775-0.123,1.735-0.271,2.493-0.452l-0.021,0.146c1.078-0.138,1.888-0.239,2.748-0.424c0.858-0.188,1.798-0.312,3.091-0.684
						l-0.509,0.232c1.474-0.373,1.762-0.845,3.095-1.235l0.46,0.08c1.261-0.39,2.55-0.719,3.794-1.178
						c0.625-0.22,1.254-0.432,1.863-0.681c0.604-0.265,1.2-0.543,1.782-0.841c-0.027,0.045-0.075,0.131-0.466,0.306
						c1.171-0.423,4.431-1.896,3.896-1.95c0.129,0.187,2.421-1.255,3.611-2.032L97,120.312c0.936-0.783,0.941-0.844,2.342-1.762
						c0.347-0.195,0.357-0.089-0.111,0.158c1.152-0.656,0.783-0.684,2.151-1.521l-0.442,0.411c1.126-0.767,1.024-0.725,1.556-1.266
						c0.646-0.563,2.077-1.528,2.311-1.561c0.093-0.179,0.597-0.737,1.233-1.226c0.113-0.033-0.091,0.178-0.194,0.283
						c0.909-0.689,1.522-1.275,2.044-1.827c0.527-0.545,1.005-1.01,1.613-1.508c0.055,0.01,0.143-0.046,0.243-0.13
						c-1.298,1.263-2.394,2.226-2.294,2.132c0.085,0.097,1.176-0.886,0.439,0.04c0.398-0.437,0.94-1.029,1.5-1.642
						c0.55-0.622,1.114-1.271,1.638-1.757c0.057-0.041,0.113-0.081,0.163-0.104l-0.092,0.115c0.238-0.228,0.438-0.444,0.613-0.661
						c0.317-0.326,0.521-0.533,0.812-0.859c0.183-0.062,1.178-1.204,1.628-1.78c-0.146-0.044,0.47-0.773-0.18-0.15
						c0.078-0.085-0.07,0.121-0.376,0.497c-0.069,0.085-0.149,0.185-0.195,0.242c0.007-0.014,0.015-0.029,0.023-0.045
						c-0.315,0.359-0.728,0.829-1.195,1.362c0.33-0.479,0.683-0.968,1.275-1.52c0.175-0.348,0.365-0.725,0.469-0.932
						c0.78-0.644,2.061-2.087,2.293-2.249c0.628-0.924,1.397-1.988,2.011-3.033c0.315-0.516,0.616-1.01,0.863-1.462
						c0.231-0.462,0.419-0.874,0.54-1.209c0.291-0.561,0.434-0.587,0.59-0.77c-0.162,0.328-0.387,0.699-0.454,0.89
						c0.619-1.104,1.803-3.288,1.776-3.64c0.807-1.375-0.245,0.88,0.706-1.092l-0.074,0.293c0.521-0.944,0.949-1.826,1.314-2.687
						c0.333-0.874,0.62-1.72,0.914-2.575c0.537-1.733,1.065-3.512,1.908-5.752c-0.118,0.311-0.176,0.465-0.226,0.521
						c1.742-5.18,2.25-10.976,2.688-16.315c0.058-1.526-0.06-1.694-0.147-2.623l0.152-0.333c0,0-0.053-0.397-0.117-0.793
						c-0.062-0.396-0.124-0.791-0.124-0.791c-0.106-1.123-0.071-2.101-0.113-3.155c-0.012-0.527-0.029-1.074-0.076-1.666
						c-0.065-0.589-0.181-1.22-0.343-1.918l-0.046,0.38c-0.071-0.508-0.188-1.312-0.312-1.962c-0.133-0.649-0.225-1.153-0.15-1.081
						c-0.038-0.1-0.169-0.309-0.196-0.713l0.071-0.046c0,0-0.159-0.61-0.319-1.22c-0.187-0.602-0.374-1.205-0.374-1.205
						c-0.438-1.903,0.411,0.212-0.34-2.547c-0.343-1.01-1.109-2.821-1.041-2.423c0.122,0.41,0.273,1.059,0.208,1.113l-0.323-0.911
						c-0.274-0.096-0.715-0.718-0.179,1.575l0.618,1.525l0.021,0.542c0,0-0.078-0.335-0.18-0.665
						c-0.104-0.329-0.206-0.657-0.206-0.657c0.139,0.773,0.344,1.228,0.541,1.75c-0.025,0.143-0.01,0.376,0.048,0.696l0.609,1.507
						c-0.05,0.21-0.331-0.664-0.156,0.401c0.249,0.716,0.058-0.753,0.369,0.457c0.051,0.792-0.079,0.583,0.19,1.468
						c-0.034,0.138-0.109-0.046-0.207-0.398c0.253,0.785,0.417,2.123,0.593,2.524c-0.005,0.414,0.104,1.096,0.187,1.669
						c0.067,0.575,0.089,1.042-0.021,1.013c0.077,0.25,0.312,1.417,0.394,2.166c-0.345-1.352,0.136,2.812-0.178,2.46
						c0.159,0.501,0.184,1.418,0.19,2.434c0.004,0.507,0.007,1.039,0.011,1.557c-0.018,0.518-0.026,1.021-0.018,1.472
						c-0.014-0.102-0.041-0.301-0.021-0.459c-0.072,1.011-0.159,1.3-0.237,1.945c0.184,0.144,0.068,1.718,0.104,2.581
						c-0.313,1.215-0.153-0.777-0.373-0.409c0.08-0.022,0.072,0.519,0.049,1.014c-0.037,0.493-0.071,0.942,0.025,0.742
						c-0.258,0.924-0.179,0.803-0.411,1.261c0.212,0.202-0.073,0.882-0.096,1.679c-0.389,1.325-0.294,0.302-0.518,1.796
						C126.168,78.661,126.346,77.331,126.346,77.331z M110.139,108.811l-0.002-0.002c0.214-0.224,0.396-0.415,0.514-0.537
						C110.543,108.384,110.396,108.539,110.139,108.811z M107.986,110.935c0.271-0.248,0.614-0.554,0.961-0.893
						c0.105-0.044,0.069,0.083-0.158,0.286C108.887,110.192,108.344,110.658,107.986,110.935z M113.158,106.968
						c-0.308,0.377-0.437,0.48-0.502,0.512c0.148-0.175,0.322-0.379,0.551-0.647c0.007-0.015,0.019-0.039,0.025-0.054
						C113.221,106.83,113.206,106.886,113.158,106.968z"/>
					<path fill="#DE8B64" d="M113.597,106.194c0.042-0.056,0.065-0.087,0.12-0.159c-0.072,0.068-0.142,0.134-0.212,0.199
						c-0.027,0.054-0.055,0.108-0.08,0.157C113.483,106.325,113.543,106.256,113.597,106.194z"/>
					<path fill="#DE8B64" d="M83.515,3.221l-0.061-0.022c0.05,0.021,0.095,0.041,0.123,0.059C83.542,3.236,83.54,3.234,83.515,3.221
						z"/>
					<polygon fill="#DE8B64" points="70.581,127.583 70.587,127.617 70.847,127.562 					"/>
					<path fill="#DE8B64" d="M98.485,10.647c0.021,0.028,0.065,0.073,0.164,0.151C98.646,10.785,98.574,10.722,98.485,10.647z"/>
					<path fill="#DE8B64" d="M104.327,14.861l0.763,0.677C104.758,15.245,104.519,15.032,104.327,14.861z"/>
					<path fill="#DE8B64" d="M108.449,18.556c0.066,0.031,0.094,0.032,0.119,0.032l-0.008-0.008L108.449,18.556z"/>
					<path fill="#DE8B64" d="M27.604,12.855c-0.06,0.043-0.119,0.086-0.172,0.125C27.04,13.292,27.308,13.083,27.604,12.855z"/>
					<path fill="#DE8B64" d="M51.289,2.122c-0.27,0.077-0.535,0.152-0.813,0.23C50.936,2.271,51.292,2.203,51.289,2.122z"/>
					<path fill="#DE8B64" d="M8.681,34.655c0.001-0.003-0.001,0,0-0.004c-0.029,0.055-0.055,0.104-0.084,0.159L8.681,34.655z"/>
					<path fill="#DE8B64" d="M49.293,2.649c0.459-0.087,0.835-0.189,1.183-0.296C50.103,2.437,49.662,2.534,49.293,2.649z"/>
					<path fill="#DE8B64" d="M122.223,38l0.11,0.242c0.007-0.008,0.021,0.003,0.033,0.02L122.223,38z"/>
					<path fill="#DE8B64" d="M122.367,38.262l0.131,0.266C122.445,38.403,122.398,38.295,122.367,38.262z"/>
					<path fill="#DE8B64" d="M122.772,39.088l-0.274-0.56C122.581,38.727,122.68,38.974,122.772,39.088z"/>
					<path fill="#DE8B64" d="M118.845,31.508l-0.087-0.045C118.792,31.497,118.821,31.514,118.845,31.508z"/>
					<path fill="#DE8B64" d="M117.658,29.626c0.29,0.444,0.61,1.189,1.03,1.799l0.07,0.038
						C118.507,31.21,118.016,29.996,117.658,29.626z"/>
					<path fill="#DE8B64" d="M112.486,21.837c0,0,0.306,0.358,0.598,0.728c0.296,0.367,0.591,0.733,0.591,0.733
						c-0.17-0.286-0.394-0.666,0.169-0.018C112.432,21.358,114.073,23.728,112.486,21.837z"/>
					<path fill="#DE8B64" d="M108.463,17.599c0.742,0.689,0.046-0.065,0.104-0.051C108.065,17.144,107.939,17.052,108.463,17.599z"
						/>
					<path fill="#DE8B64" d="M70.64,0.504l0.114-0.117C69.974,0.327,70.742,0.436,70.64,0.504z"/>
					<path fill="#DE8B64" d="M62.593,0.886c0,0,0.188,0.011,0.376,0.021c0.188,0.018,0.376,0.036,0.376,0.036l0.356-0.116
						c0,0-0.277,0.009-0.555,0.018C62.87,0.866,62.593,0.886,62.593,0.886z"/>
					<polygon fill="#DE8B64" points="57.787,0.305 58.126,0.253 56.829,0.426 					"/>
					<path fill="#DE8B64" d="M4.159,41.566l0.232-0.164C4.567,40.904,4.438,40.733,4.159,41.566z"/>
					<path fill="#DE8B64" d="M0.502,71.756c-0.061,0.343,0.019,1.204,0.175,1.72C0.584,72.792,0.544,72.104,0.502,71.756z"/>
					<path fill="#DE8B64" d="M62.549,129.133l-0.62,0.021c0,0,0.292,0.005,0.584,0.009c0.292,0.009,0.583-0.011,0.583-0.011
						L62.549,129.133z"/>
				</g>
			</g>
		</g>
	</g>
</g>
</svg>
