<svg xmlns="http://www.w3.org/2000/svg" width="128.84" height="129.164" viewBox="0 0 128.84 129.164" class="logo"><path d="M58.229 35.221c-2.128 2.406-3.423 5.182-4.812 7.957-.833 1.573-1.851 3.239-2.868 4.812-1.203 1.85-2.591 1.665-3.424-.371-1.851-4.163-4.071-8.143-6.292-12.121-.462-.74-1.11-1.48-1.48-2.221-.833.37-.555.833-.555 1.203.555 7.31 1.203 14.619 1.018 22.021-.185 6.57-.463 13.232-.463 19.802 0 2.684.278 5.274.37 7.958.093 4.719.093 9.438.186 14.064 0 .555-.093 1.109-.186 1.665-.185.74-1.11 1.203-1.758.925-.74-.185-1.203-.647-1.203-1.388.093-2.961.37-5.736.37-8.697 0-3.146-.277-6.478-.277-9.716 0-8.42-.277-16.748.277-25.168a28.62 28.62 0 0 0 0-5.645c-.277-5.273-.462-10.455-.925-15.729-.186-1.943-.74-3.979-1.11-5.922-.278-1.11.092-1.759 1.11-1.943h.833c1.203-.185 2.128.277 2.683 1.388a1368.643 1368.643 0 0 0 8.698 16.008c.092.186.37.37.74.647.555-.74 1.203-1.573 1.665-2.405l5.552-11.381a12.4 12.4 0 0 0 .74-2.221c.186-.833.648-1.296 1.296-1.666.925-.37.925-.37 2.868.093-.647 3.794-.463 7.587-.555 11.288-.092 6.385 0 12.77-.092 19.154-.186 5.182.277 10.455-.37 15.637-.186 1.389-.093 2.776.092 4.071.37 4.349.278 8.698 0 13.047-.185 2.961-.092 6.015-.185 8.976 0 .555.093 1.203 0 1.758-.093.647-.833 1.388-1.573 1.48-.647 0-1.388-.647-1.48-1.48 0-.555.093-1.11.093-1.666.463-7.217.833-14.526.37-21.744v-2.405c.093-3.794.093-7.495.185-11.382.185-4.163.278-8.512.37-12.676.092-2.591-.092-5.182-.092-7.68v-4.72c-.001-1.294.092-2.497.184-3.607zm30.162 22.577c-2.035-.556-3.979-.74-6.107-.463-.555.093-1.018.278-1.572.278-.834 0-1.574-1.019-1.666-1.759 0-.74.555-1.295 1.48-1.573.463-.092.926-.092 1.295-.092 3.055.092 6.107.277 9.068.463.74.555.926 1.388.832 2.312-.369 6.385.094 12.677-.184 18.969-.186 3.608-.186 7.402-.094 11.104 0 3.424.094 4.719-.369 8.143-.186 1.203-.094 2.035-.648 3.054-1.295 2.868-1.85 4.256-5.273 4.719-2.221-.277-3.609.093-5.83-.463-3.887-.925-6.199-3.701-7.217-7.495-.833-2.498-1.018-5.273-1.203-7.864-.186-5.089-.186-10.271-.277-15.36 0-2.221.092-4.719.092-6.939 0-2.591.094-5.182-.369-7.772-.277-1.11-.186-2.221-.186-3.424v-9.438c0-1.11.186-2.128.37-3.239l.74-5.459c.278-1.203.647-2.591 1.296-3.701 1.572-2.961 3.793-4.349 7.309-4.533.463 0 .834-.093 1.297-.186 4.811-.093 8.975 2.221 10.178 6.848.369 1.109.277 2.683.277 3.979 0 .925-.648 1.572-1.389 1.572-.74.093-1.85-.647-1.942-1.388s-.093-1.573 0-2.405c0-1.851-1.019-3.238-2.405-4.071-2.684-1.666-5.737-1.48-8.42-.463-1.943.925-2.961 2.868-3.146 4.812a161.47 161.47 0 0 0-1.111 9.068c-.092 2.961-.092 5.922-.184 8.79a2.22 2.22 0 0 0 0 1.11c.555 3.424.277 7.125.369 10.733 0 3.794.277 7.587.463 11.381v5.459c.092 2.684.092 5.367.277 8.05.186 3.146 1.389 5.922 3.979 7.773.556.462 1.203.74 1.666.832 2.129.463 2.869.74 5.645.74.832.277 1.943-2.035 2.221-2.684.369-.832.463-1.572.463-2.498.463-3.053.185-4.071.277-7.217.647-11.381.463-18.414.186-28.314.089-.464-.097-.833-.188-1.389z" fill="#D97A4D"/><g fill="#DE8B64"><path d="M124.82 44.266c.106.187.166.04-.053-.499l-.297-.333.35.832zm-1.082-3.772c-.34-.602-.776-1.272-.744-.805.408.561.41.736.871 1.338.226.538.301.974.212.902.11.178.274.861.479 1.12-.152-.749-.433-1.676-.937-2.553-.049-.212.072-.036.119-.002zM83.107 3.073l.348.125a4.947 4.947 0 0 0-.348-.125zm-35.02-.735c.261-.07.366-.114.376-.132-.241.072-.438.132-.376.132zm-5.841 1.651l.34-.112a1.624 1.624 0 0 0-.34.112zm40.861-.916l-.893-.325c-.077.033.455.18.893.325zM120 33.602c.102.168.191.304.282.426l-.245-.412a.159.159 0 0 1-.037-.014zM97.436 9.266l.248.146c.084.027.164.048.241.064l-.489-.21zm9.709 7.058c-.199-.185-.361-.142-.479-.165.151.058.321.17.507.32.018-.017.015-.064-.028-.155zm12 14.683l.193.277-.193-.277zM89.789 5.33a.24.24 0 0 0-.081-.088c-.007.016.026.048.081.088zm37.647 52.412c.012.008.017-.006.024-.004-.021-.067-.033-.087-.024.004zm-2.267-13.594l.063.182c.031.011.062.023.088.015l-.151-.197zM32.079 8.52l.045-.021c.25-.155.105-.073-.045.021zM8.973 97.566c-.497-1.049 1.123 1.521.332-.034.038.168-1.017-1.237-.332.034zm110.896-64.243l-.234-.427c.101.197.174.328.234.427zM9.305 97.532l-.082-.16.082.16zm3.694-72.056a1.2 1.2 0 0 0 .203-.174c-.017-.002-.066.035-.203.174zM26.74 12.308l-.387.27.387-.27zM7.813 33.919c-.129.222-.187.29-.334.609l.065-.086c.042-.121.113-.275.269-.523zM3.66 43.338l.091-.17.103-.31-.194.48zm119.699 44.641c.121-.19.214-.304.295-.388-.153.109.382-1.282-.295.388zm-3.293-54.42c-.06-.035-.115-.103-.197-.236.059.101.113.199.169.293.032.016.052.012.028-.057zM8.597 34.81l-.77 1.415.77-1.415zm58.641 93.081l.369-.035a1.932 1.932 0 0 0-.369.035zM5.887 40.588a8.197 8.197 0 0 0-.435.803c-.015.065-.036.139-.038.186l.473-.989zm117.77 47.002l-.003.002.003-.002z"/><path d="M126.346 77.331c-.305 1.501.035.744.075 1.087-.394 1.793-.339.792-.582 1.375-.219 1.121-.284 2.016-.555 2.827-.048.053-.106.208-.087.011-.178 1.215-1.104 3.417-1.428 4.805a.7.7 0 0 1-.113.154c.174-.179.273-.178.318-.109-.261.642-.381 1.232-.592 1.429.165-.392.133-.442.174-.64l-.228.689c-.408.537.321-.938.2-.984-.232.664-.486 1.39-.728 2.071a19.462 19.462 0 0 1-.788 1.781c-.25.132 1.021-2.315.271-1.071l.381-.744.349-.761c-.731 1.075.402-.931-.308.041-.423 1.011-.709 1.554-.935 2.124-.25.561-.457 1.141-1.004 2.09-.146.479.199-.081.053.398-.646 1.426-1.037 1.912-1.394 2.297-.346.39-.631.689-1.114 1.732-.217.562-.172.866-1.162 2.172l.146-.57c-1.178 1.768-.449 1.165-1.854 2.904.173-.366.933-1.392.725-1.145-.973 1.078-.514.891-1.166 1.789l-.273.079c-1.381 1.79-2.877 3.8-4.623 5.61.062-.135.324-.479-.123-.096-1.053 1.184-2.308 2.316-3.557 3.432-1.298 1.058-2.589 2.099-3.852 2.953l-.84.822c-.217.162-.45.232-.225.047-1.012.625.004.11-.435.479-.554.392-.786.437-.457.157-1.606 1.358-4.913 3.432-6.942 4.326l.357-.246c-1.551.742-1.61 1.129-3.105 1.713l.266-.156c-3.416 1.523-7.307 2.984-10.118 3.525-.472.347-3.604.814-3.789 1.104-2.125.275-1.529.139-4.513.473-.793.116-1.164.326-2.148.459l-.04-.15-1.326.292-.364-.062c-.182-.036-.363-.075-.363-.075l-.926.084c.369-.009.789.031.736.078a22.38 22.38 0 0 1-2.322.072c-.709-.029-1.242-.107-1.26-.145l-1.718.062c-.859.019-1.719-.009-1.719-.009.08-.059.655-.051 1.11-.064-1.838.062-.325-.181-2.009-.123.223.047-.127.086-.167.114-.832-.128-2.726-.331-4.13-.465l.281-.065c-2.512-.389-5.312-.779-8.071-1.539.981.297.71.418-.111.23l-.284-.239c-.553-.034.835.273-.278.12-1.025-.316-.639-.381-.039-.255l-1.259-.321c-.059-.068.24-.005.333-.041-.538-.064-2.099-.783-2.868-.902l-.053-.069c-1.348-.469-2.325-.815-3.222-1.188-.906-.35-1.75-.678-2.799-1.184-.101.107-.912-.307-1.592-.499a3631.5 3631.5 0 0 0-2.354-1.347c-.817-.48-1.646-1.026-2.541-1.539-1.27-.702-.422-.122-1.018-.402-.021-.167-1.751-1.287-.806-.777-1.051-.655-1.686-1.127-2.4-1.629-.359-.248-.735-.508-1.184-.816-.434-.327-.938-.706-1.564-1.18.232.254.517.513.334.422-.458-.34-.977-.854-.874-.85l.126.084c-2.872-2.091-5.706-5.771-7.686-7.734l.111.111-.988-1.066c-.506-.524-.96-1.094-.96-1.094-.792-1.078.561.58.025-.256a39.635 39.635 0 0 1-1.361-1.646 57.333 57.333 0 0 1-1.034-1.52c-.666-.959-1.205-1.918-1.94-2.979-.189-.47-.5-1.087-.856-1.804-.355-.715-.833-1.485-1.238-2.319-.412-.831-.848-1.677-1.22-2.479-.343-.815-.645-1.582-.85-2.224l-.022.177c-.351-.607-.288-.791-.438-1.281-.04.094.183.737-.01.35-1.088-2.74-2.011-5.652-2.647-8.646-.61-2.998-1.092-6.041-1.269-9.052-.17-2.194-.543-1.221-.482-4.016l.202.784c-.359-4.454.176-9.116.811-13.431-.012.262.027.276-.034.698.267-.888.666-3.34.568-3.381.177-.657.125-.133.275-.528.301-.875.4-2.294.669-2.73.044-.074-.042.258-.075.424.113-.594.827-2.681.525-2.17l.751-2.223c.246-.701.439-1.378.742-1.961.188-.845 1.118-2.574 1.062-2.895.165.201 1.355-2.538 1.789-3.484-.101.338.483-.764.377-.36.529-1.056 1.069-1.995.859-1.879 1.306-1.752 2.132-3.844 3.117-4.659 1.898-2.959 3.976-5.486 6.127-7.812.05.207-2.359 2.587-2.081 2.651l1.297-1.589 1.198-1.36c.77-.899 1.621-1.718 2.732-2.711.586-.502-.255.371-.419.576 1.044-1.079 2.197-1.964 3.265-2.882 1.132-.837 2.179-1.719 3.262-2.501.006.021-.219.203-.433.371.43-.303 1.028-.664.921-.714l-.408.312c-.78.356 1.55-1.443 1.593-1.557-.604.715 2.295-1.323 1.279-.263.285-.198.629-.466.526-.483.449-.252.608-.303.204.037 1.574-1.038.97-.75 2.46-1.587.018.047-.275.229-.402.365.712-.497 1.421-1.025 2.752-1.597-.065.064.103.026-.285.213 1.113-.547 2.032-1.079 3.024-1.529.982-.475 1.999-.955 3.306-1.355-.682.478.896-.25 1.092-.124l.68-.272.69-.241-.59.086c1.229-.363 2.266-.862 3.352-1.081l-.452.154-.445.177s.571-.189 1.154-.335l1.162-.312-1.336.264c1.236-.412-.196-.194 1.479-.564-.333.108 1.247-.333 1.934-.329l-.004.001c.611-.183 1.243-.373 2.186-.514.252.01-.159.242.005.25.593-.251 2.963-.511 3.734-.75-.259.064-.261.163-.172.174l.51-.177c.598-.018.686-.006.598.081 1.783-.15-.589-.181 1.538-.285-.166.026-.085.038-.43.09 2.13-.116 4.117-.318 6.082-.225.575.189-1.713.042-1.052.202 2.817-.083 5.856-.012 8.569.369l-.502-.096c.41-.202 2 .418 3.383.53-.336-.05-.463.064-.367.048.915.201 1.854.376 2.919.556 1.052.228 2.233.451 3.61.799l-.354-.037c1.036.392 2.784.842 3.888 1.305.354.055.994.294.637.062 3.31 1.614 6.594 2.475 9.312 4.342-.345-.181-.851-.381-.576-.236 0 0 .631.293 1.229.646l1.212.679c-.13-.211-.277-.245-.736-.62.338.12 1.045.475 1.641.826-1.125-.566-.077.149.334.507-.057-.08.119-.011.1-.066 1.104.971.33-.062 1.918 1.146l-.122-.008c.647.37 1.228.738 1.874 1.216.189.304-.678-.416-.781-.356.907.659 1.963 1.087 2.664 1.85-.396-.271-.932-.706-1.348-.948.807.773.902.855 1.537 1.379l-.061-.053s.358.312.719.623c.361.309.712.63.712.63l-.345-.343c.656.312 1.192.792 1.779 1.303.594.506 1.195 1.089 1.946 1.68-1.472-1.134-.306-.123-.511-.113.315.369.809.915.629.799.734.53.99 1.114 1.973 1.922.002.074.646.704.419.639.818.825-.123-.258-.013-.228 1.347 1.209 2.604 3.31 4.32 5.24.691.871 1.1 1.393 1.521 1.882.421.489.819.971 1.386 1.841.301.638-.449-.394-.449-.394.52 1.004 1.006 1.698 1.563 2.603-.142-.167-.065.045.042.355.419.74.43.414.904 1.434-.141-.144-.336-.319-.58-.652l.8 1.274.745 1.336c.043.285-.389-.508-.598-.811.539 1.032 1.396 2.678 1.631 2.97l-.25-.71c.173.39-.014.247-.168-.027-.531-.855-.586-1.318-.566-1.391l.352.653c-.037-.403-.373-1.071-.775-1.803-.408-.73-.946-1.493-1.289-2.154l.48.445-.886-1.259c-.116-.308-.122-.563.265.065-.441-.983-.551-.775-.928-1.624-.039-.096-.007-.062.051.014l-.603-.861c.146.152.033-.228.345.338-.871-1.683-1.818-2.437-2.068-3.124l.1.123c-1.583-2.08-.263-.125-1.577-1.583l-.5-1.279-.274-.109c-.164-.213-.502-.626-.391-.59-.727-.701.059.173-.393-.209-.367-.536-.942-1.221-1.456-1.791-.524-.561-.954-1.038-.966-1.228-.4-.261.777.969-.223.011-.039-.234-.32-.52-.68-.865-.373-.334-.836-.714-1.217-1.171.354.157 1.109.995.345.079-.664-.344-1.618-1.651-2.417-2.267-.078.052-.498-.294-1.061-.787a45.424 45.424 0 0 0-1.983-1.582c.14-.004-2.444-2.004-3.721-2.912h.056c-.363 0-1.663-.957-2.702-1.507.097-.068.306-.006.872.287 0 0-.232-.148-.473-.286l-.477-.28c-.254-.082-.566-.23-1.195-.576l.31.022c-.63-.382-1.298-.705-2.019-1.041-.721-.332-1.453-.754-2.299-1.178-.149.071 1.199.955-.64.189-.036-.093-.054-.232.433-.036-.16-.064-.578-.207-.877-.379l.771.232c-.757-.411-.449-.103-1.066-.403.055-.084-.431-.28-.31-.31.163.066.526.292.781.368-.693-.349-1.521-.797-1.785-.971.041.078-.052.122-.582-.082-1.36-.552-.421-.301-1.195-.674-.35-.085-1.211-.464-1.284-.333-.406-.145-.457-.236-.601-.33-.372-.091-1.204-.404-1.865-.592-.661-.184-1.133-.297-.745-.098l.184.066-.121-.03.006.001-.006-.001c-1.21-.302-2.439-.688-3.689-1.011a32.664 32.664 0 0 0-3.716-.856l.013-.048c-1.459-.217-3.246-.5-4.305-.514-.433-.043-1.014-.193-.822-.232-1.127-.063-1.252-.071-2.875-.223 1.14-.027-.387-.097 1.166-.002-1.461-.115-1.793-.226-3.371-.151.539-.125-1.104-.162-1.804-.126l1.029.093c-.785.017-1.471.003-2.168-.008l.374-.166c-3.029-.124-5.393.62-7.695.608-.771.231 1.627-.158.94.081-1.366.182-2.831.151-3.26.223-1.878.295-1.696.557-3.638.941.26-.005.525.091-.891.508-1.339.316-1.709.176-.875-.084.321-.086.48-.107.472-.084.427-.131.991-.299.443-.227l-.16.102c-.34.055-.972.201-1.468.308-.493.115-.845.212-.646.096-.985.363-.4.225.349.027-1.716.458-2.669.766-4.396 1.366.284-.068.559-.094.287.004-2.537.866-1.085.469-2.747 1.193-.983.317.258-.343-1.396.438-1.053.379-.282-.052.109-.27-1.505.723-2.855 1.259-3.737 1.633l.772-.426c-.46.258-.854.436-1.244.64l.503-.12c-.479.198-.851.43-.869.375-.431.324.448-.021-.426.579-.628.284-1.81 1.044-2.08 1.052 1.906-1.021-.294-.03 1.298-.939a15.59 15.59 0 0 1-1.144.626c-.075.025.045-.068.166-.141-1.849.951-.725.648-2.556 1.765.182-.222-.516.119-.789.343.716-.488.421-.109-.194.395-1.173.72-1.203.886-1.8 1.286l.696-.437c-.181.226-.755.602-1.491 1.214-.106-.006.663-.563.373-.382-.741.777-2.034 1.293-3.085 2.355-.564.396-.158-.085-.647.273-1.208 1.147-1.433 1.105-2.663 2.357.452-.257.495-.337-.326.584l2.048-2.017-1.233 1.382c.641-.581 1.276-1.312 1.694-1.623-.603.643-.538.578-.175.365-.979.682-1.667 1.651-2.71 2.533l-.179-.239c-1.552 1.374-2.448 2.732-4.218 4.735l.289-.319c.142-.162.297-.312.297-.312-.15.343-1.026 1.294-1.535 1.996-.026-.124-.396.275-.674.529.085.007-1.16 1.583-1.142 1.894l-.404.445c-.207.22-.392.456-.392.456-1.228 1.783-1.145 2.197-2.209 3.971.225-.592-.315.185.327-1.053-.354.597-.687 1.125-.633 1.169-.278.309-.837 1.733-1.204 2.259-.098.279-.051.411-.42 1.093-.058.066-.042-.025-.042-.025.029.019-.48 1.119-.088.556-1.208 1.785-2.45 5.418-3.243 7.102-.508 1.425-.961 3.191-1.344 4.507-.007-.093-.046-.017.027-.267-.546 1.814-.02 1.196-.622 3.259-.385 1.04.16-1.134-.042-.478-.382.221-.508 2.549-.916 3.947l.034-.351C.62 54.874.567 56.483.397 58.284c0 0-.02-.091-.048-.016.013 1.247-.06 3.586-.037 5.322-.126-.543-.065-.792-.195-.463.016.78.208-.223.24 1.329-.066.505-.146 1.628-.258 1.78 0 0-.022-.367-.016-.734l-.002-.735c-.199.756.027 1.904.043 2.678l-.083-.095c.115 2.256.365 2.267.575 4.674l.034-.254c.335 1.287.04 1.11.365 2.396l-.137.424c.078.43.248 1.178.474 1.999.223.822.417 1.737.634 2.487-.359-.823-.769-2.61-1.074-3.71.155.853.588 2.888.77 3.309-.088-.338-.221-.759-.259-1.104.331 1.019.78 2.342 1.191 4.011-.478-.189 1.196 4.318 1.413 5.572 1.208 2.807 2.227 5.652 3.996 8.76-.346-1.253.507.908.667.564.414.717.6.973.614 1.051l1.163 2.23c.25.549-.486-.625-.492-.529.959 1.545.309.709.912 1.758-.049-.266.487.434 1.04 1.313l-.71-1.286c1.554 2.01 1.079 1.934 2.741 3.895l-.567-.587c.822 1.028 3.104 3.749 4.187 4.497.132.195.282.479-.129.068 2.138 2.318 5.181 4.698 7.032 6.28l-.232-.091c.476.345.87.544 1.424 1.025-.049.002-.236-.08-.019.084.267.162 1.336.81 1.938 1.302l-.585-.321c1.209.946 2.255 1.504 3.213 2.07.993.511 1.938.976 3.063 1.586-.107.174 1.971 1.41 3.054 1.939l-.052.01c3.208 1.594 5.645 2.259 8.796 3.209 1.867.906 6.668 1.955 9.918 2.525-.494-.115.107-.156.688-.093.756.185 2.139.092 1.994.289l-.274-.031c.559.246 2.148.396 3.391.433l.219-.252c1.607.301 3.745.279 5.682.174.969-.064 1.892-.127 2.682-.18.789-.072 1.449-.104 1.898-.062.775-.123 1.736-.271 2.494-.452l-.021.146c1.078-.138 1.889-.238 2.748-.424.857-.188 1.798-.312 3.091-.684l-.509.232c1.475-.373 1.762-.846 3.095-1.235l.46.08c1.262-.39 2.551-.72 3.795-1.179.625-.22 1.254-.432 1.862-.681.604-.265 1.2-.543 1.782-.841-.027.045-.075.131-.467.307 1.172-.424 4.432-1.896 3.896-1.951.129.188 2.421-1.254 3.611-2.031l-.116.241c.936-.783.941-.845 2.342-1.763.348-.194.357-.089-.111.158 1.152-.656.783-.685 2.151-1.521l-.442.41c1.127-.767 1.024-.725 1.557-1.266.646-.562 2.077-1.527 2.311-1.561.094-.18.598-.737 1.233-1.227.112-.033-.091.178-.194.283a16.027 16.027 0 0 0 2.045-1.827 17.994 17.994 0 0 1 1.612-1.508c.056.01.144-.046.243-.13a61.483 61.483 0 0 1-2.294 2.132c.085.097 1.176-.886.438.04.398-.438.94-1.029 1.5-1.643.551-.621 1.114-1.271 1.639-1.757.057-.04.113-.081.162-.104l-.092.114c.238-.228.438-.443.613-.66.316-.326.521-.533.812-.859.183-.062 1.178-1.204 1.627-1.779-.146-.045.471-.773-.18-.15.078-.086-.07.121-.375.496l-.195.242c.007-.014.015-.028.022-.045l-1.194 1.362c.33-.479.683-.968 1.274-1.521l.47-.932c.779-.644 2.061-2.087 2.293-2.249.627-.924 1.396-1.987 2.01-3.032.315-.517.617-1.011.863-1.463.231-.461.42-.873.541-1.209.291-.561.434-.586.59-.77-.162.328-.388.699-.455.89.619-1.104 1.804-3.288 1.776-3.64.808-1.375-.245.88.706-1.092l-.074.293c.521-.944.949-1.826 1.314-2.688.333-.874.62-1.72.914-2.574.537-1.733 1.064-3.513 1.908-5.752-.118.311-.176.465-.227.521 1.742-5.181 2.25-10.976 2.688-16.315.058-1.526-.06-1.694-.147-2.623l.152-.333s-.053-.397-.117-.793l-.124-.791c-.106-1.123-.071-2.101-.112-3.155a29.883 29.883 0 0 0-.076-1.666 16.579 16.579 0 0 0-.344-1.918l-.046.38a43.66 43.66 0 0 0-.312-1.962c-.133-.649-.225-1.153-.15-1.081-.038-.1-.169-.309-.195-.713l.07-.046-.318-1.22-.375-1.205c-.438-1.903.412.212-.34-2.547-.343-1.01-1.109-2.821-1.041-2.423.122.41.273 1.059.209 1.113l-.324-.911c-.273-.096-.715-.718-.178 1.575l.617 1.525.021.542s-.078-.335-.18-.665l-.207-.657c.139.773.344 1.228.541 1.75-.025.143-.01.376.049.696l.608 1.507c-.05.21-.331-.664-.155.401.248.716.058-.753.368.457.052.792-.079.583.19 1.468-.034.138-.109-.046-.207-.398.253.785.417 2.123.593 2.524-.005.414.104 1.096.187 1.669.067.575.09 1.042-.021 1.013.077.25.312 1.417.394 2.166-.345-1.352.137 2.812-.178 2.46.159.501.184 1.418.19 2.434l.011 1.558c-.018.518-.025 1.021-.018 1.472a1.873 1.873 0 0 1-.021-.459c-.072 1.011-.158 1.3-.236 1.944.184.145.067 1.719.104 2.582-.312 1.215-.153-.777-.373-.41.08-.021.072.52.049 1.015-.037.493-.07.942.025.741-.258.925-.18.804-.411 1.262.212.202-.073.882-.097 1.679-.389 1.325-.293.302-.518 1.796-.21.692-.032-.638-.032-.638zm-16.207 31.48l-.002-.002.514-.537c-.108.112-.255.267-.512.539zm-2.153 2.125c.271-.248.613-.555.961-.894.104-.044.068.083-.158.286.098-.137-.445.33-.803.608zm5.172-3.968c-.309.378-.438.48-.502.513.148-.176.322-.379.551-.647.007-.015.02-.039.025-.054a.588.588 0 0 1-.074.188z"/><path d="M113.598 106.193l.119-.158-.212.199c-.026.054-.055.107-.08.156l.173-.197zM83.516 3.221l-.062-.022a.9.9 0 0 1 .123.059c-.035-.022-.037-.024-.061-.037zM70.581 127.583l.006.034.261-.055zM98.484 10.647a.938.938 0 0 0 .164.151 1.034 1.034 0 0 0-.164-.151zm5.843 4.214l.763.677c-.332-.293-.57-.506-.763-.677zm4.122 3.695a.245.245 0 0 0 .119.032l-.008-.008-.111-.024zm-80.845-5.701l-.172.125c-.392.312-.124.103.172-.125zM51.289 2.122l-.813.23c.46-.081.816-.149.813-.23zM8.681 34.655v-.004l-.084.159.084-.155zM49.293 2.649c.459-.087.835-.189 1.183-.296-.373.084-.814.181-1.183.296zM122.223 38l.11.242c.007-.008.021.003.033.02l-.143-.262zm.144.262l.131.266a1.33 1.33 0 0 0-.131-.266zm.404.826l-.273-.56c.083.199.182.446.273.56zm-3.925-7.58l-.088-.045c.034.034.062.051.088.045zm-1.188-1.882c.29.444.609 1.189 1.029 1.799l.07.038c-.25-.253-.741-1.467-1.099-1.837zm-5.172-7.789s.306.358.598.728l.591.733c-.17-.286-.394-.666.169-.018-1.412-1.922.229.448-1.358-1.443zm-4.023-4.238c.742.689.046-.065.104-.051-.503-.404-.628-.496-.104.051zM70.641.504l.113-.117c-.779-.06-.012.049-.113.117zm-8.048.382l.376.021.376.036.356-.116-.555.018-.553.041zM57.787.305l.339-.052-1.297.173zM4.159 41.566l.232-.164c.176-.498.047-.669-.232.164zM.502 71.756c-.061.344.019 1.204.175 1.721-.093-.685-.133-1.373-.175-1.721zm62.047 57.377l-.62.021.584.009c.292.009.583-.011.583-.011l-.547-.019z"/></g></svg>